<?xml version="1.0" encoding="iso-8859-1"?>
<!-- Generator: Adobe Illustrator 16.0.0, SVG Export Plug-In . SVG Version: 6.00 Build 0)  -->
<!DOCTYPE svg PUBLIC "-//W3C//DTD SVG 1.1//EN" "http://www.w3.org/Graphics/SVG/1.1/DTD/svg11.dtd">
<svg version="1.1" id="Capa_1" xmlns="http://www.w3.org/2000/svg" xmlns:xlink="http://www.w3.org/1999/xlink" x="0px" y="0px"
	 width="422.781px" height="422.781px" viewBox="0 0 422.781 422.781" style="enable-background:new 0 0 422.781 422.781;"
	 xml:space="preserve">
<g>
	<path d="M363.79,239.864l-14.57-138.769c-3.373-32.141-30.476-56.545-62.791-56.545h-36.347V26.685h13.664
		c3.238,0,6.275,1.6,8.119,4.278c2.59,3.755,6.759,5.771,10.998,5.771c2.611,0,5.248-0.764,7.562-2.357
		c6.067-4.182,7.596-12.491,3.414-18.558C287.013,5.913,275.763,0,263.746,0H236.74H186.04h-27.006
		c-12.016,0-23.264,5.913-30.092,15.819c-4.182,6.066-2.654,14.376,3.414,18.558c6.066,4.182,14.377,2.652,18.557-3.414
		c1.846-2.679,4.883-4.278,8.121-4.278h13.664V44.55h-36.344c-32.322,0-59.426,24.41-62.795,56.556l-14.57,139.012
		c-0.803,7.666-0.197,15.413,1.789,22.86l14.572,54.603c5.906,22.131,23.141,38.858,44.459,44.646l-15.006,42.795
		c-2.438,6.953,1.223,14.568,8.178,17.006c1.461,0.514,2.949,0.754,4.414,0.754c5.51,0,10.666-3.438,12.592-8.93l17.324-49.412
		h128.156l17.326,49.412c1.926,5.492,7.082,8.93,12.592,8.93c1.463,0,2.953-0.24,4.414-0.754
		c6.955-2.438,10.614-10.053,8.176-17.006l-15.004-42.795c21.342-5.795,38.588-22.551,44.477-44.713l14.57-54.847
		C363.993,255.238,364.595,247.51,363.79,239.864z M199.382,26.685h24.016V44.55h-24.016V26.685L199.382,26.685z M170.563,308.686
		c0,3.24-2.627,5.865-5.865,5.865H122.76c-2.799,0-5.209-1.979-5.754-4.725l-4.693-23.66c-0.34-1.721,0.107-3.506,1.221-4.863
		c1.113-1.355,2.779-2.143,4.533-2.143H164.7c3.238,0,5.865,2.625,5.865,5.865L170.563,308.686L170.563,308.686z M310.468,286.166
		l-4.691,23.66c-0.547,2.745-2.955,4.725-5.754,4.725h-41.939c-3.239,0-5.866-2.625-5.866-5.865v-23.66
		c0-3.239,2.627-5.864,5.866-5.864h46.632c1.756,0,3.42,0.786,4.535,2.144C310.362,282.661,310.81,284.446,310.468,286.166z
		 M100.39,220.76l8.652-82.537c2.502-23.869,22.627-41.994,46.625-41.994h111.432c23.998,0,44.119,18.12,46.625,41.984l8.668,82.546
		H100.39L100.39,220.76z"/>
</g>
<g>
</g>
<g>
</g>
<g>
</g>
<g>
</g>
<g>
</g>
<g>
</g>
<g>
</g>
<g>
</g>
<g>
</g>
<g>
</g>
<g>
</g>
<g>
</g>
<g>
</g>
<g>
</g>
<g>
</g>
</svg>
